<?xml version="1.0" encoding="UTF-8" standalone="no"?>
<!-- Created with Inkscape (http://www.inkscape.org/) -->

<svg
   width="800"
   height="360"
   viewBox="0 0 211.66666 95.250002"
   version="1.1"
   id="svg884"
   inkscape:version="1.2 (dc2aeda, 2022-05-15)"
   sodipodi:docname="cookiecutter.svg"
   xmlns:inkscape="http://www.inkscape.org/namespaces/inkscape"
   xmlns:sodipodi="http://sodipodi.sourceforge.net/DTD/sodipodi-0.dtd"
   xmlns="http://www.w3.org/2000/svg"
   xmlns:svg="http://www.w3.org/2000/svg">
  <sodipodi:namedview
     id="namedview886"
     pagecolor="#ffffff"
     bordercolor="#000000"
     borderopacity="0.25"
     inkscape:showpageshadow="2"
     inkscape:pageopacity="0.0"
     inkscape:pagecheckerboard="0"
     inkscape:deskcolor="#d1d1d1"
     inkscape:document-units="mm"
     showgrid="false"
     inkscape:zoom="0.914906"
     inkscape:cx="260.13601"
     inkscape:cy="296.7518"
     inkscape:window-width="2014"
     inkscape:window-height="1205"
     inkscape:window-x="0"
     inkscape:window-y="25"
     inkscape:window-maximized="0"
     inkscape:current-layer="layer1" />
  <defs
     id="defs881" />
  <g
     inkscape:label="Layer 1"
     inkscape:groupmode="layer"
     id="layer1">
    <text
       xml:space="preserve"
       style="font-size:25.4px;fill:#5fbcd3;stroke:none;stroke-width:0.265142"
       x="27.181377"
       y="33.834972"
       id="text949"><tspan
         sodipodi:role="line"
         style="font-style:normal;font-variant:normal;font-weight:normal;font-stretch:normal;font-size:25.4px;font-family:'Open Sans';-inkscape-font-specification:'Open Sans';fill:#5fbcd3;stroke:none;stroke-width:0.265142"
         x="27.181377"
         y="33.834972"
         id="tspan1001">cookiecutter</tspan></text>
    <path
       d="m 55.823628,69.065114 c -1.65385,8.14254 -8.85267,14.27264 -17.48401,14.27264 -9.85347,0 -17.84079,-7.98732 -17.84079,-17.8408 0,-9.250465 7.04176,-16.857782 16.05672,-17.751604"
       stroke="#000000"
       stroke-width="2.67612"
       stroke-linecap="round"
       stroke-linejoin="round"
       id="path4016"
       style="fill:none;stroke:#ff9955;stroke-width:1.4532;stroke-dasharray:none" />
    <path
       d="m 28.527158,61.928784 a 0.89204027,0.89204027 0 1 1 0,-1.784076 0.89204027,0.89204027 0 0 1 0,1.784076 z m 24.97715,-10.704481 a 0.89204027,0.89204027 0 1 1 0,-1.784079 0.89204027,0.89204027 0 0 1 0,1.784079 z m -15.16469,26.761201 a 1.7840806,1.7840806 0 1 1 0,-3.56815 1.7840806,1.7840806 0 0 1 0,3.56815 z m -8.92044,-7.11847 0.0203,-0.0196 m 17.82298,0.0196 0.0203,-0.0196 m -10.72228,-5.33262 0.0203,-0.0195 m 17.82298,-5.332609 0.0203,-0.01956 m -7.15418,-5.332613 0.0203,-0.01955 m -10.72239,-7.134544 c -0.89209,2.676121 0.89203,5.352242 3.71977,5.352242 -3.71977,6.244279 -0.15172,12.488564 8.76878,11.596524 0,4.4602 4.46022,5.35224 6.6011,4.48518"
       stroke="#000000"
       stroke-width="2.67612"
       stroke-linecap="round"
       stroke-linejoin="round"
       id="path4018"
       style="fill:none;stroke:#ff9955;stroke-width:1.87328;stroke-dasharray:none" />
    <text
       xml:space="preserve"
       style="font-style:normal;font-variant:normal;font-weight:normal;font-stretch:normal;font-size:21.6341px;font-family:'Open Sans';-inkscape-font-specification:'Open Sans';white-space:pre;inline-size:141.717;fill:#ff9955;stroke-width:1.87328"
       x="127.82278"
       y="82.708862"
       id="text222"
       transform="matrix(1.1740718,0,0,1.1740718,-29.526688,-41.014974)"><tspan
         x="127.82278"
         y="82.708862"
         id="tspan3915">poetry</tspan></text>
    <path
       id="path3856"
       style="fill:#5fbcd3;stroke:#5fbcd3;stroke-width:1.09301"
       d="M 202.20703 184.52539 C 200.10305 184.52539 197.99766 185.54879 196.84766 187.59766 C 195.39755 190.18123 195.42521 190.77153 197.10547 193.33594 C 199.67909 197.26378 204.73498 197.26378 207.3086 193.33594 C 208.98878 190.77153 209.01449 190.18123 207.56446 187.59766 C 206.41445 185.54879 204.31109 184.52539 202.20703 184.52539 z M 178.75586 203.74414 C 178.14659 203.73587 177.51653 203.8942 176.92188 204.26172 C 174.76045 205.59756 174.82675 208.89606 177.03906 210.14649 C 178.7093 211.09051 181.04516 210.12871 181.88867 208.14844 C 182.83895 205.91768 180.93183 203.77368 178.75586 203.74414 z M 205.68164 223.97071 C 204.55068 223.94436 203.43329 224.51694 202.74219 225.65039 C 201.76228 227.25749 202.26923 229.21532 203.92774 230.22657 C 205.0852 230.93224 206.28946 230.90181 207.42188 230.13867 C 209.29593 228.87581 209.60914 226.73043 208.15039 225.13867 C 207.44998 224.37443 206.56128 223.9912 205.68164 223.97071 z M 108.00586 223.98438 C 105.35053 223.91205 102.65585 225.41117 101.50977 228.41211 C 100.94739 229.88468 101.05839 232.35972 101.74805 233.69336 C 102.69903 235.53237 104.59684 236.91985 106.6582 237.28321 C 111.96292 238.21827 116.12637 232.77973 113.84961 227.89063 C 112.65984 225.33571 110.3488 224.04819 108.00586 223.98438 z M 107.79883 230.48828 C 108.04198 230.48828 108.16321 230.61143 108.07031 230.76172 C 107.97743 230.91201 107.85623 231.03516 107.79883 231.03516 C 107.74142 231.03516 107.61829 230.91201 107.52539 230.76172 C 107.4325 230.61143 107.55566 230.48828 107.79883 230.48828 z M 138.24414 244.17578 C 137.66166 244.18016 137.05794 244.34552 136.48242 244.70117 C 135.60408 245.24401 134.71289 246.67842 134.71289 247.54883 C 134.71289 248.48941 135.53745 249.90148 136.4043 250.44532 C 138.54702 251.78956 141.54492 250.17803 141.54492 247.68164 C 141.54492 245.59847 139.99159 244.16264 138.24414 244.17578 z M 111.23633 264.41407 C 110.45539 264.42821 109.65536 264.72639 108.98242 265.3711 C 107.25762 267.02356 107.53587 269.70099 109.54492 270.79297 C 111.79425 272.01554 114.58399 270.34825 114.58399 267.78125 C 114.58399 265.72538 112.95439 264.38294 111.23633 264.41407 z M 178.85352 264.42188 C 178.28252 264.41044 177.67846 264.55228 177.08399 264.8711 C 176.13759 265.37866 175.1543 266.83116 175.1543 267.72266 C 175.1543 268.71052 175.96387 270.11079 176.84571 270.64844 C 177.34316 270.95174 178.22538 271.20061 178.80664 271.20118 C 179.67066 271.20202 180.05848 271.00988 180.92578 270.14258 C 181.82238 269.24598 181.98633 268.90274 181.98633 267.92969 C 181.98633 265.86027 180.56651 264.45618 178.85352 264.42188 z M 144.7793 277.89453 C 143.34887 277.90646 141.88267 278.22655 140.46875 278.90625 C 139.78263 279.23609 138.53503 280.19137 137.69531 281.02735 C 135.66256 283.05108 134.87891 284.99273 134.87891 288.00782 C 134.87891 291.02453 135.66268 292.9667 137.69531 294.98633 C 139.27908 296.55996 141.0977 297.58349 143.02149 297.98438 C 145.49045 298.49886 149.01163 297.62225 151.09375 295.97461 C 153.78701 293.84338 155.08325 290.87443 154.87696 287.31055 C 154.55506 281.75013 149.88796 277.85195 144.7793 277.89453 z M 144.97852 284.5918 C 145.83501 284.5918 147.31049 285.49087 147.70508 286.25391 C 148.48249 287.75725 148.0772 289.92652 146.8711 290.7168 C 145.24799 291.7803 143.07318 291.3305 142.09766 289.73047 C 141.39756 288.58216 141.39715 287.43218 142.09766 286.28321 C 142.62514 285.41802 144.03262 284.5918 144.97852 284.5918 z "
       transform="scale(0.26458333)" />
  </g>
</svg>
