<?xml version="1.0" encoding="UTF-8" standalone="no"?>
<!-- Svg Vector Icons : http://www.onlinewebfonts.com/icon -->

<svg
   version="1.1"
   x="0px"
   y="0px"
   viewBox="0 0 1000 400"
   enable-background="new 0 0 1000 1000"
   xml:space="preserve"
   id="svg107"
   sodipodi:docname="cookiecutter.svg"
   inkscape:version="1.2.2 (b0a84865, 2022-12-01)"
   width="1000"
   height="400"
   xmlns:inkscape="http://www.inkscape.org/namespaces/inkscape"
   xmlns:sodipodi="http://sodipodi.sourceforge.net/DTD/sodipodi-0.dtd"
   xmlns="http://www.w3.org/2000/svg"
   xmlns:svg="http://www.w3.org/2000/svg"><defs
   id="defs111" /><sodipodi:namedview
   id="namedview109"
   pagecolor="#ffffff"
   bordercolor="#000000"
   borderopacity="0.25"
   inkscape:showpageshadow="2"
   inkscape:pageopacity="0.0"
   inkscape:pagecheckerboard="0"
   inkscape:deskcolor="#d1d1d1"
   showgrid="false"
   inkscape:zoom="0.888"
   inkscape:cx="618.80631"
   inkscape:cy="447.07207"
   inkscape:window-width="1714"
   inkscape:window-height="1412"
   inkscape:window-x="1726"
   inkscape:window-y="28"
   inkscape:window-maximized="0"
   inkscape:current-layer="svg107" />
<metadata
   id="metadata77"> Svg Vector Icons : http://www.onlinewebfonts.com/icon </metadata>
<g
   id="g105"
   transform="matrix(0.18413427,0,0,0.16458026,200.72571,187.2276)"
   style="fill:#2abfd8;fill-opacity:1"><g
     transform="matrix(0.1,0,0,-0.1,176.70377,497.48505)"
     id="g103"
     style="fill:#2abfd8;fill-opacity:1;stroke:#2abfd8;stroke-opacity:1"><path
       d="m 1880.687,5150.888 c -43.55,-3.4549 -179.2915,-15.638 -304.6682,-24.3662 -501.416,-41.8225 -994.10389,-135.8323 -1211.76299,-231.5696 -114.9211,-50.4598 -725.985,-409.1337 -961.0096,-564.059 -254.2084,-167.1083 -478.77731,-353.4005 -753.89691,-625.0653 -342.945,-337.6717 -520.509,-586.6977 -621.5195,-872.1821 -26.0937,-67.9162 -78.3719,-245.4802 -116.6486,-391.7682 -40.0042,-146.1971 -104.4655,-363.8562 -142.7422,-483.9597 -351.6731,-1105.57013 -311.6689,-2157.13464 116.6486,-3060.6835 107.9203,-228.1148 167.1083,-325.5795 379.4942,-647.7041 473.5949,-712.0744 880.91021,-1086.3863 1577.34671,-1443.3327 666.7969,-341.2175 1246.58479,-490.9604 2099.67399,-543.1477 903.549,-54.0056 1490.3376,48.7324 2071.762,363.8562 1022.0159,551.8759 1431.1496,943.6441 1861.1945,1782.8228 238.4795,463.1393 327.307,746.89616 426.5901,1354.50516 172.3816,1067.20243 181.0189,1342.32214 52.1872,2052.66904 -127.1042,705.0738 -290.7576,1152.5751 -598.8807,1636.5348 -252.481,396.9506 -483.9597,651.1589 -779.9907,851.3617 -315.1238,215.9317 -571.0596,337.7626 -1109.025,537.9653 -578.0604,212.3859 -1016.7426,299.4859 -1575.6192,309.9415 -181.0189,1.7275 -365.5837,1.7275 -409.1337,-1.8184 z m 910.5497,-311.578 c 403.9514,-62.6429 703.3463,-148.0155 1211.7631,-346.4908 412.5885,-161.926 771.2624,-362.1287 1009.7419,-564.0589 334.2167,-285.5753 722.53,-914.0046 896.6391,-1453.7883 132.2866,-410.8612 254.2084,-1105.5702 254.2084,-1457.2433 0,-346.49077 -130.5591,-1295.31724 -235.0245,-1707.90584 -144.5606,-565.78636 -510.1443,-1243.03896 -877.4554,-1622.62406 -351.6731,-365.5837 -1194.3066,-886.1836 -1652.1727,-1020.1976 -396.9506,-116.6485 -520.5999,-132.2865 -1048.1095,-130.5591 -983.6483,3.4549 -1612.16849,134.105 -2315.514785,484.0506 -703.346205,349.9457 -1088.113715,701.6188 -1570.436915,1429.3313 -694.7089,1049.74596 -832.2688,2090.94575 -445.6829,3368.8066 47.0049,158.4711 125.3767,428.3175 172.3816,600.6083 99.1922,362.1287 175.8366,529.2371 334.3077,739.8955 125.3767,163.6535 515.32661,551.8759 720.80261,715.5293 313.3964,248.9351 1129.9363,738.1681 1347.5045,807.8117 C 1111.152,4846.2198 2235.906,4926.3191 2791.2367,4839.31 Z"
       id="path79"
       style="fill:#ff765c;fill-opacity:1;stroke:#2abfd8;stroke-width:0.909186;stroke-opacity:1" /><path
       d="m 1797.857,4430.2019 c -118.156,-25.3945 -217.8621,-91.4331 -257.2688,-167.6163 -38.1854,-76.1831 -7.3928,-213.2995 66.4708,-293.262 135.3843,-148.5207 400.0459,-115.5677 481.3022,59.6734 22.1783,44.4237 28.2854,79.9626 28.2854,158.7315 0,116.8275 -29.5711,191.7509 -88.6491,223.4441 -45.4496,24.1346 -162.3841,34.2792 -230.1405,19.0293 z"
       id="path81"
       style="fill:#2abfd8;fill-opacity:1;stroke:#2abfd8;stroke-width:0.652866;stroke-opacity:1" /><path
       d="m 461.35011,2463.0407 c -128.6639,-84.2842 -216.7389,-279.73 -216.7389,-484.1662 -1.6801,-156.0195 23.6989,-236.745 108.4136,-349.6859 186.231,-249.294 548.6119,-258.1906 751.82109,-17.9807 40.6773,48.4167 86.3949,125.49 101.6046,172.1272 35.5484,111.1615 33.8682,265.4018 -5.0404,355.024 -72.7769,170.3478 -348.85139,347.9066 -560.46129,362.2349 -94.884,7.3047 -120.3515,1.873 -179.5987,-37.5533 z"
       id="path83"
       style="fill:#2abfd8;fill-opacity:1;stroke:#2abfd8;stroke-width:0.910013;stroke-opacity:1" /><path
       d="m 4846.0922,2287.8558 c -44.2398,-27.9317 -62.3036,-52.7837 -130.0782,-181.0422 -63.1997,-119.9924 -71.3591,-156.2441 -46.9753,-212.1073 32.496,-70.3422 137.247,-146.8976 224.8776,-161.3766 61.4075,-10.373 159.8386,11.3996 209.5494,47.5971 112.0143,80.7154 100.2233,293.7951 -24.3838,436.5867 -74.9434,85.8478 -163.4701,112.7529 -232.9897,70.3423 z"
       id="path85"
       style="fill:#2abfd8;fill-opacity:1;stroke:#2abfd8;stroke-width:0.504786;stroke-opacity:1" /><path
       d="m 3096.6055,3080.0866 c -87.6824,34.3924 -140.7022,32.3703 -384.4628,-17.0474 -227.8074,-46.5497 -283.7999,-77.3612 -326.7107,-181.4476 -51.9297,-133.8096 -27.0177,-385.7138 57.2843,-537.234 58.7847,-106.4492 202.1789,-231.2036 306.8654,-264.1005 234.8051,-75.1423 493.7945,197.4784 530.3887,558.9266 21.9677,217.3497 -47.4758,385.0876 -183.3649,440.9029 z"
       id="path85-6"
       style="fill:#2abfd8;fill-opacity:1;stroke:#2abfd8;stroke-width:0.925733;stroke-opacity:1" /><path
       d="m -1096.5566,2715.2236 c -189.1597,-81.9416 -292.6789,-311.7834 -228.2278,-505.7568 36.9711,-112.1069 112.0172,-156.6046 239.8711,-146.5495 98.27711,8.6294 160.63131,56.0535 201.85141,152.3274 27.4801,61.7564 29.5769,79.0151 28.5285,211.2323 0,117.8098 -4.2488,153.753 -23.2311,202.6029 -35.9779,94.7731 -120.515,127.8649 -218.79211,86.1437 z"
       id="path91"
       style="fill:#2abfd8;fill-opacity:1;stroke:#2abfd8;stroke-width:0.643476;stroke-opacity:1" /><path
       d="m 1890.4404,219.65255 c -182.9953,-74.16359 -283.141,-282.188386 -220.7902,-457.74959 35.7663,-101.4655 108.3666,-141.7393 232.0538,-132.6387 95.0744,7.8103 155.3966,50.7328 195.2733,137.8682 26.5846,55.8944 28.6131,71.5149 27.5988,191.181804 0,106.62708 -4.1104,139.15855 -22.474,183.371456 -34.8054,85.77707 -116.5874,115.72776 -211.6617,77.96683 z"
       id="path91-3"
       style="fill:#2abfd8;fill-opacity:1;stroke:#2abfd8;stroke-width:0.602121;stroke-opacity:1" /><path
       d="m -1110.2544,-130.44104 c -31.0482,-12.9907 -69.8583,-33.6948 -85.3823,-45.3324 -72.1174,-54.3989 -113.1287,-173.6164 -96.504,-277.2721 18.8837,-123.0741 119.79,-260.4245 239.5801,-329.0998 221.85491,-128.284 373.79371,-6.4954 389.31771,313.5379 9.9632,177.5408 -29.9475,265.6346 -143.0761,322.6046 -82.0805,41.4757 -226.25731,49.256704 -303.93541,15.5618 z"
       id="path97"
       style="fill:#2abfd8;fill-opacity:1;stroke:#2abfd8;stroke-width:0.62604;stroke-opacity:1" /><path
       d="m 3581.3552,-1682.7776 c -70.4222,-24.5475 -129.9842,-77.9941 -167.8821,-150.6323 -24.8881,-45.915 -28.1688,-67.2824 -29.2436,-149.5723 0,-84.4097 3.2242,-103.6572 30.3184,-158.108 36.8231,-73.6982 85.5814,-108.9573 171.1062,-127.1447 106.1707,-21.3675 181.9665,9.5957 244.8092,102.5414 47.6269,69.4582 69.2909,142.0965 75.7957,258.5296 10.8603,176.2955 -44.4027,239.2821 -207.9859,238.2221 -41.1221,0.056 -94.1791,-6.3601 -116.9179,-13.8358 z"
       id="path99"
       style="fill:#2abfd8;fill-opacity:1;stroke:#2abfd8;stroke-width:0.561757;stroke-opacity:1" /><path
       d="m 4227.264,453.92412 c -149.3625,-50.70188 -275.6908,-161.0937 -356.0707,-311.12518 -52.7868,-94.835556 -59.745,-138.9692758 -62.0244,-308.93588 0,-174.3452 6.8381,-214.1001 64.3039,-326.5662 78.1004,-152.2207 181.5145,-225.047 362.909,-262.6126 225.1835,-44.1337 385.9432,19.8199 519.2297,211.7956 101.0147,143.4632 146.9631,293.4948 160.7597,533.9830042 23.0344,364.1316558 -94.1763,494.2280758 -441.1294,492.0386858 -87.2182,0.11519 -199.7499,-13.1364 -247.9778,-28.57743 z"
       id="path99-8"
       style="fill:#2abfd8;fill-opacity:1;stroke:#2abfd8;stroke-width:1.17577;stroke-opacity:1" /><path
       d="m 847.92611,-1814.7675 c -253.246,-83.5788 -401.3883,-405.7562 -301.9823,-658.5154 76.0042,-189.6225 290.2815,-316.0021 453.9908,-269.1554 109.07179,30.5567 301.98239,171.3097 372.18709,269.1554 107.1386,150.8677 99.3042,316.0022 -17.5003,495.4037 -109.2753,165.1345 -304.119,228.3776 -506.69529,163.1117 z"
       id="path101"
       style="fill:#2abfd8;fill-opacity:1;stroke:#2abfd8;stroke-width:1.04081;stroke-opacity:1" /></g></g>
<text
   xml:space="preserve"
   style="font-size:85.3333px;fill:#000000"
   x="180.18018"
   y="153.15315"
   id="text3586"><tspan
     sodipodi:role="line"
     id="tspan3584"
     x="180.18018"
     y="153.15315"
     style="font-style:normal;font-variant:normal;font-weight:normal;font-stretch:normal;font-family:'Heiti SC';-inkscape-font-specification:'Heiti SC'"><tspan
       style="fill:#2bbed7;fill-opacity:1"
       id="tspan9390">c</tspan><tspan
       style="fill:#2abfd8;fill-opacity:1"
       id="tspan5872">ookiecutter</tspan></tspan></text><text
   xml:space="preserve"
   style="font-size:85.3333px;fill:#000000"
   x="534.90991"
   y="251.12614"
   id="text3590"><tspan
     sodipodi:role="line"
     id="tspan3588"
     x="534.90991"
     y="251.12614"
     style="font-style:normal;font-variant:normal;font-weight:normal;font-stretch:normal;font-family:'Heiti SC';-inkscape-font-specification:'Heiti SC';fill:#ff765c;fill-opacity:1">poetry</tspan></text><text
   xml:space="preserve"
   style="font-size:85.3333px;fill:#000000"
   x="506.75677"
   y="610.36035"
   id="text3594"><tspan
     sodipodi:role="line"
     id="tspan3592"
     x="506.75677"
     y="610.36035" /></text><text
   xml:space="preserve"
   style="font-style:normal;font-variant:normal;font-weight:normal;font-stretch:normal;font-size:85.3333px;font-family:'Heiti SC';-inkscape-font-specification:'Heiti SC';fill:#000000"
   x="702.7027"
   y="852.47748"
   id="text3598"><tspan
     sodipodi:role="line"
     id="tspan3596"
     x="702.7027"
     y="852.47748"></tspan></text></svg>
